<?xml version="1.0" standalone="no"?><!DOCTYPE svg PUBLIC "-//W3C//DTD SVG 1.1//EN" "http://www.w3.org/Graphics/SVG/1.1/DTD/svg11.dtd"><svg t="1702536100732" class="icon" viewBox="0 0 1024 1024" version="1.1" xmlns="http://www.w3.org/2000/svg" p-id="6491" xmlns:xlink="http://www.w3.org/1999/xlink" width="200" height="200"><path d="M348.16 112.64c0-22.528 18.432-40.96 40.96-40.96h122.88c22.528 0 40.96 18.432 40.96 40.96h153.6c57.344 0 102.4 45.056 102.4 102.4v26.624c0 12.288-8.192 20.48-20.48 20.48s-20.48-8.192-20.48-20.48V215.04c0-34.816-26.624-61.44-61.44-61.44h-512c-34.816 0-61.44 26.624-61.44 61.44v532.48c0 34.816 26.624 61.44 61.44 61.44h32.768c12.288 0 20.48 8.192 20.48 20.48s-8.192 20.48-20.48 20.48h-32.768c-57.344 0-102.4-45.056-102.4-102.4v-532.48c0-57.344 45.056-102.4 102.4-102.4h153.6z m583.68 583.68c0 12.288-8.192 20.48-20.48 20.48s-20.48-8.192-20.48-20.48V440.32c0-34.816-26.624-61.44-61.44-61.44h-409.6c-34.816 0-61.44 26.624-61.44 61.44v409.6c0 34.816 26.624 61.44 61.44 61.44h409.6c34.816 0 61.44-26.624 61.44-61.44v-45.056c0-12.288 8.192-20.48 20.48-20.48s20.48 8.192 20.48 20.48v45.056c0 57.344-45.056 102.4-102.4 102.4h-409.6c-57.344 0-102.4-45.056-102.4-102.4v-409.6c0-57.344 45.056-102.4 102.4-102.4h409.6c57.344 0 102.4 45.056 102.4 102.4v256z m-686.08-419.84c-12.288 0-20.48-8.192-20.48-20.48s8.192-20.48 20.48-20.48h61.44c12.288 0 20.48 8.192 20.48 20.48s-8.192 20.48-20.48 20.48h-61.44z m163.84 0c-12.288 0-20.48-8.192-20.48-20.48s8.192-20.48 20.48-20.48h245.76c12.288 0 20.48 8.192 20.48 20.48s-8.192 20.48-20.48 20.48h-245.76z" fill="#32373B" p-id="6492"></path></svg>